<?xml version="1.0" encoding="UTF-8"?> <svg xmlns="http://www.w3.org/2000/svg" width="95" height="18" viewBox="0 0 95 18" fill="none"><path d="M31.9933 0.317871C33.3363 0.317871 34.5096 0.553761 35.5128 1.02554C36.516 1.49738 37.2929 2.16441 37.843 3.02664C38.3931 3.8889 38.6683 4.8895 38.6683 6.02831C38.6683 7.16719 38.3931 8.16773 37.843 9.02998C37.3089 9.89227 36.5321 10.5674 35.5128 11.0555C34.5096 11.5273 33.3363 11.7632 31.9933 11.7632H30.0274V17.4005H25.7797V0.317871H31.9933ZM31.7993 8.12706C32.6082 8.12706 33.2311 7.93183 33.6682 7.54138C34.1213 7.15087 34.3477 6.64656 34.3477 6.02831C34.3477 5.42638 34.1213 4.93014 33.6682 4.53971C33.2311 4.1492 32.6082 3.95401 31.7993 3.95401H30.0274V8.12706H31.7993Z" fill="white"></path><path d="M67.4593 17.4005L62.8231 11.5924H61.9251V17.4005H57.6775V0.317871H63.8912C65.2343 0.317871 66.4072 0.553761 67.4105 1.02554C68.414 1.49738 69.1903 2.16441 69.7404 3.02664C70.2911 3.8889 70.566 4.88134 70.566 6.0039C70.566 7.12649 70.2911 8.11078 69.7404 8.95681C69.1903 9.80279 68.4058 10.4536 67.3862 10.9091L72.6046 17.4005H67.4593ZM61.9251 3.90516V8.07821H63.697C64.5062 8.07821 65.1291 7.88301 65.5658 7.49253C66.019 7.10208 66.2457 6.60592 66.2457 6.0039C66.2457 5.38569 66.019 4.88134 65.5658 4.49092C65.1291 4.10041 64.5062 3.90516 63.697 3.90516H61.9251Z" fill="white"></path><path d="M79.3205 17.4005H75.0733V4.17359H70.8981V0.317871H83.4472V4.17359H79.3205V17.4005Z" fill="white"></path><path d="M88.0336 10.4454V13.7643H94.9999V17.4005H83.7863V0.317871H94.7572V3.95401H88.0336V6.90683H94.5147V10.4454H88.0336Z" fill="white"></path><path d="M48.201 17.7189C46.5667 17.7189 45.0454 17.3529 43.6376 16.6207C42.246 15.8723 41.1376 14.823 40.3123 13.4727C39.4873 12.1223 39.0745 10.5849 39.0745 8.86031C39.0745 7.13579 39.4873 5.59834 40.3123 4.24802C41.1376 2.89764 42.246 1.85644 43.6376 1.12427C45.0454 0.375906 46.5667 0.00170898 48.201 0.00170898C49.8352 0.00170898 51.3483 0.375906 52.7398 1.12427C54.1477 1.85644 55.264 2.89764 56.0893 4.24802C56.9146 5.59834 57.3272 7.13579 57.3272 8.86031C57.3272 10.5849 56.9146 12.1223 56.0893 13.4727C55.264 14.823 54.1477 15.8723 52.7398 16.6207C51.3483 17.3529 49.8352 17.7189 48.201 17.7189ZM48.201 13.8143C49.1069 13.8143 49.9244 13.6028 50.6524 13.1798C51.3968 12.7568 51.9712 12.1711 52.3758 11.4228C52.7965 10.6743 53.0068 9.82019 53.0068 8.86031C53.0068 7.90044 52.7965 7.04631 52.3758 6.29792C51.9712 5.54955 51.3968 4.96385 50.6524 4.54086C49.9244 4.11787 49.1069 3.90633 48.201 3.90633C47.2947 3.90633 46.4694 4.11787 45.7253 4.54086C44.9969 4.96385 44.4226 5.54955 44.0019 6.29792C43.5972 7.04631 43.3951 7.90044 43.3951 8.86031C43.3951 9.82019 43.5972 10.6743 44.0019 11.4228C44.4226 12.1711 44.9969 12.7568 45.7253 13.1798C46.4694 13.6028 47.2947 13.8143 48.201 13.8143Z" fill="white"></path><path d="M17.8898 5.95305L11.9886 17.3911H8.41683L0 0.476074H4.08985L10.4553 13.5656L14.3439 5.95305H17.8898Z" fill="white"></path><path fill-rule="evenodd" clip-rule="evenodd" d="M15.2329 0.476074H23.2037L21.4573 3.86106H15.2329C14.9486 3.86106 14.6832 3.90432 14.4368 3.9908C14.1903 4.07729 13.9722 4.19913 13.7827 4.35643C13.6026 4.50584 13.4605 4.68271 13.3562 4.8872C13.2519 5.09157 13.1998 5.31176 13.1998 5.54765C13.1998 5.78357 13.2519 6.00766 13.3562 6.2199C13.4605 6.42433 13.6026 6.6052 13.7827 6.7625C13.9722 6.9119 14.1903 7.02976 14.4368 7.11633C14.6832 7.20282 14.9486 7.24604 15.2329 7.24604H19.3134C20.1571 7.24604 20.9485 7.37969 21.6879 7.64704C22.4367 7.90652 23.086 8.26822 23.6358 8.73214C24.195 9.18816 24.631 9.72676 24.9438 10.3479C25.266 10.9612 25.4272 11.6178 25.4272 12.3177C25.4272 13.0175 25.266 13.674 24.9438 14.2873C24.631 14.9006 24.195 15.4392 23.6358 15.9031C23.086 16.3592 22.4367 16.7208 21.6879 16.9882C20.9485 17.2555 20.1571 17.3892 19.3134 17.3892H13.0466L14.793 14.0042H19.3134C19.5978 14.0042 19.8633 13.9609 20.1097 13.8745C20.3562 13.788 20.5694 13.67 20.7494 13.5207C20.9391 13.3634 21.086 13.1825 21.1902 12.9781C21.2945 12.7737 21.3466 12.5535 21.3466 12.3177C21.3466 12.0818 21.2945 11.8616 21.1902 11.6571C21.086 11.4527 20.9391 11.2758 20.7494 11.1264C20.5694 10.9691 20.3562 10.8473 20.1097 10.7608C19.8633 10.6743 19.5978 10.6311 19.3134 10.6311H15.2329C14.3893 10.6311 13.5979 10.4974 12.8585 10.23C12.1192 9.96265 11.47 9.60098 10.9107 9.1449C10.361 8.68102 9.92489 8.14241 9.60262 7.52909C9.28035 6.908 9.1192 6.24746 9.1192 5.54765C9.1192 4.84788 9.28035 4.19133 9.60262 3.57801C9.92489 2.96466 10.361 2.43002 10.9107 1.97394C11.47 1.51002 12.1192 1.14442 12.8585 0.87707C13.5979 0.60972 14.3893 0.476074 15.2329 0.476074Z" fill="white"></path><path fill-rule="evenodd" clip-rule="evenodd" d="M8.58099 4.55539L6.7954 0.895508H5.64386L8.56116 6.87502C8.39402 6.14358 8.39253 5.40527 8.55678 4.66005C8.56449 4.62495 8.57261 4.59008 8.58099 4.55539Z" fill="white"></path><path fill-rule="evenodd" clip-rule="evenodd" d="M8.37772 4.1423L6.59209 0.482422H5.44055L8.35788 6.46196C8.19074 5.73049 8.18922 4.99218 8.3535 4.24696C8.36121 4.21186 8.36933 4.17699 8.37772 4.1423Z" fill="white"></path></svg> 